<svg xmlns="http://www.w3.org/2000/svg" xmlns:xlink="http://www.w3.org/1999/xlink" width="360" zoomAndPan="magnify" viewBox="0 0 270 67.499998" height="90" preserveAspectRatio="xMidYMid meet" version="1.2"><defs><clipPath id="ff5b12e592"><path d="M 215.070312 44 L 236 44 L 236 57 L 215.070312 57 Z M 215.070312 44 "/></clipPath><clipPath id="e8748a77ac"><path d="M 221 55 L 241 55 L 241 67.003906 L 221 67.003906 Z M 221 55 "/></clipPath><clipPath id="dcd669a6dd"><path d="M 217 3.996094 L 267.929688 3.996094 L 267.929688 57 L 217 57 Z M 217 3.996094 "/></clipPath></defs><g id="444a4bac29"><g style="fill:#6b21a8;fill-opacity:1;"><g transform="translate(15.457306, 47.977551)"><path style="stroke:none" d="M 27.953125 -4.734375 L 27.953125 -20.359375 L 23.921875 -4.53125 C 23.554688 -3.070312 22.988281 -1.953125 22.21875 -1.171875 C 21.457031 -0.390625 20.382812 0 19 0 C 17.601562 0 16.523438 -0.390625 15.765625 -1.171875 C 15.015625 -1.953125 14.453125 -3.070312 14.078125 -4.53125 L 10.046875 -20.359375 L 10.046875 0 L 6.71875 0 C 5.675781 0 4.875 -0.164062 4.3125 -0.5 C 3.75 -0.84375 3.359375 -1.363281 3.140625 -2.0625 C 2.921875 -2.769531 2.8125 -3.660156 2.8125 -4.734375 L 2.8125 -25.765625 C 2.8125 -26.828125 3.046875 -27.757812 3.515625 -28.5625 C 3.992188 -29.363281 4.644531 -29.984375 5.46875 -30.421875 C 6.300781 -30.867188 7.242188 -31.09375 8.296875 -31.09375 C 9.972656 -31.09375 11.328125 -30.671875 12.359375 -29.828125 C 13.390625 -28.992188 14.09375 -27.835938 14.46875 -26.359375 L 19 -8.59375 L 23.53125 -26.359375 C 23.90625 -27.835938 24.609375 -28.992188 25.640625 -29.828125 C 26.671875 -30.671875 28.019531 -31.09375 29.6875 -31.09375 C 30.75 -31.09375 31.691406 -30.867188 32.515625 -30.421875 C 33.347656 -29.984375 34 -29.363281 34.46875 -28.5625 C 34.9375 -27.757812 35.171875 -26.828125 35.171875 -25.765625 L 35.171875 0 L 31.859375 0 C 30.816406 0 30.007812 -0.164062 29.4375 -0.5 C 28.875 -0.84375 28.484375 -1.363281 28.265625 -2.0625 C 28.054688 -2.769531 27.953125 -3.660156 27.953125 -4.734375 Z M 27.953125 -4.734375 "/></g></g><g style="fill:#6b21a8;fill-opacity:1;"><g transform="translate(53.436058, 47.977551)"><path style="stroke:none" d="M 12.796875 0.4375 C 11.003906 0.4375 9.40625 0.148438 8 -0.421875 C 6.59375 -0.992188 5.410156 -1.800781 4.453125 -2.84375 C 3.492188 -3.882812 2.765625 -5.109375 2.265625 -6.515625 C 1.765625 -7.921875 1.515625 -9.472656 1.515625 -11.171875 C 1.515625 -12.859375 1.765625 -14.40625 2.265625 -15.8125 C 2.765625 -17.226562 3.492188 -18.453125 4.453125 -19.484375 C 5.410156 -20.523438 6.59375 -21.332031 8 -21.90625 C 9.40625 -22.476562 11.003906 -22.765625 12.796875 -22.765625 C 14.359375 -22.765625 15.816406 -22.507812 17.171875 -22 C 18.523438 -21.5 19.71875 -20.78125 20.75 -19.84375 C 21.789062 -18.90625 22.601562 -17.773438 23.1875 -16.453125 C 23.769531 -15.140625 24.0625 -13.679688 24.0625 -12.078125 C 24.0625 -11.523438 23.984375 -11.003906 23.828125 -10.515625 C 23.679688 -10.035156 23.394531 -9.644531 22.96875 -9.34375 C 22.539062 -9.050781 21.910156 -8.90625 21.078125 -8.90625 L 8.625 -8.90625 C 8.664062 -8.25 8.832031 -7.625 9.125 -7.03125 C 9.414062 -6.4375 9.859375 -5.953125 10.453125 -5.578125 C 11.046875 -5.210938 11.828125 -5.03125 12.796875 -5.03125 C 13.835938 -5.03125 14.820312 -5.117188 15.75 -5.296875 C 16.6875 -5.484375 17.488281 -5.648438 18.15625 -5.796875 C 19.4375 -6.097656 20.421875 -5.90625 21.109375 -5.21875 C 21.796875 -4.539062 22.210938 -3.382812 22.359375 -1.75 C 22.359375 -1.75 22.132812 -1.632812 21.6875 -1.40625 C 21.238281 -1.1875 20.59375 -0.9375 19.75 -0.65625 C 18.914062 -0.375 17.910156 -0.125 16.734375 0.09375 C 15.566406 0.320312 14.253906 0.4375 12.796875 0.4375 Z M 8.625 -13.4375 L 16.953125 -13.4375 C 16.785156 -14.582031 16.359375 -15.507812 15.671875 -16.21875 C 14.984375 -16.9375 14.023438 -17.296875 12.796875 -17.296875 C 11.566406 -17.296875 10.609375 -16.9375 9.921875 -16.21875 C 9.234375 -15.507812 8.800781 -14.582031 8.625 -13.4375 Z M 8.625 -13.4375 "/></g></g><g style="fill:#6b21a8;fill-opacity:1;"><g transform="translate(79.015354, 47.977551)"><path style="stroke:none" d="M 25.375 -5.8125 C 25.375 -5.257812 25.410156 -4.773438 25.484375 -4.359375 C 25.566406 -3.953125 25.765625 -3.632812 26.078125 -3.40625 C 26.390625 -3.1875 26.882812 -3.078125 27.5625 -3.078125 C 27.5625 -2.585938 27.410156 -2.109375 27.109375 -1.640625 C 26.816406 -1.171875 26.347656 -0.78125 25.703125 -0.46875 C 25.054688 -0.15625 24.207031 0 23.15625 0 C 22.269531 0 21.535156 -0.09375 20.953125 -0.28125 C 20.367188 -0.46875 19.894531 -0.703125 19.53125 -0.984375 C 19.175781 -1.265625 18.90625 -1.539062 18.71875 -1.8125 C 18.539062 -2.09375 18.414062 -2.328125 18.34375 -2.515625 C 18.28125 -2.703125 18.25 -2.796875 18.25 -2.796875 C 18.238281 -2.765625 18.148438 -2.632812 17.984375 -2.40625 C 17.816406 -2.1875 17.570312 -1.914062 17.25 -1.59375 C 16.925781 -1.28125 16.515625 -0.96875 16.015625 -0.65625 C 15.515625 -0.34375 14.921875 -0.0820312 14.234375 0.125 C 13.554688 0.332031 12.785156 0.4375 11.921875 0.4375 C 10.265625 0.4375 8.785156 0.148438 7.484375 -0.421875 C 6.191406 -0.992188 5.101562 -1.800781 4.21875 -2.84375 C 3.332031 -3.882812 2.660156 -5.109375 2.203125 -6.515625 C 1.742188 -7.921875 1.515625 -9.472656 1.515625 -11.171875 C 1.515625 -12.859375 1.742188 -14.40625 2.203125 -15.8125 C 2.660156 -17.226562 3.332031 -18.453125 4.21875 -19.484375 C 5.101562 -20.523438 6.191406 -21.332031 7.484375 -21.90625 C 8.785156 -22.476562 10.265625 -22.765625 11.921875 -22.765625 C 12.785156 -22.765625 13.554688 -22.660156 14.234375 -22.453125 C 14.921875 -22.242188 15.515625 -21.984375 16.015625 -21.671875 C 16.515625 -21.359375 16.925781 -21.039062 17.25 -20.71875 C 17.570312 -20.40625 17.816406 -20.132812 17.984375 -19.90625 C 18.148438 -19.675781 18.238281 -19.546875 18.25 -19.515625 L 18.25 -32.875 L 21.859375 -32.875 C 22.859375 -32.875 23.601562 -32.710938 24.09375 -32.390625 C 24.59375 -32.078125 24.929688 -31.617188 25.109375 -31.015625 C 25.285156 -30.421875 25.375 -29.695312 25.375 -28.84375 Z M 13.4375 -17.296875 C 11.9375 -17.296875 10.757812 -16.757812 9.90625 -15.6875 C 9.050781 -14.613281 8.625 -13.109375 8.625 -11.171875 C 8.625 -9.234375 9.050781 -7.722656 9.90625 -6.640625 C 10.757812 -5.566406 11.9375 -5.03125 13.4375 -5.03125 C 14.945312 -5.03125 16.125 -5.566406 16.96875 -6.640625 C 17.820312 -7.722656 18.25 -9.234375 18.25 -11.171875 C 18.25 -13.109375 17.820312 -14.613281 16.96875 -15.6875 C 16.125 -16.757812 14.945312 -17.296875 13.4375 -17.296875 Z M 13.4375 -17.296875 "/></g></g><g style="fill:#6b21a8;fill-opacity:1;"><g transform="translate(108.084707, 47.977551)"><path style="stroke:none" d="M 2.5625 -5.8125 L 2.5625 -22.328125 L 6.15625 -22.328125 C 7.15625 -22.328125 7.90625 -22.164062 8.40625 -21.84375 C 8.90625 -21.53125 9.238281 -21.070312 9.40625 -20.46875 C 9.582031 -19.875 9.671875 -19.148438 9.671875 -18.296875 L 9.671875 -5.8125 C 9.671875 -5.257812 9.707031 -4.773438 9.78125 -4.359375 C 9.863281 -3.953125 10.0625 -3.632812 10.375 -3.40625 C 10.6875 -3.1875 11.179688 -3.078125 11.859375 -3.078125 C 11.859375 -2.585938 11.707031 -2.109375 11.40625 -1.640625 C 11.113281 -1.171875 10.644531 -0.78125 10 -0.46875 C 9.363281 -0.15625 8.515625 0 7.453125 0 C 6.359375 0 5.484375 -0.179688 4.828125 -0.546875 C 4.171875 -0.921875 3.675781 -1.40625 3.34375 -2 C 3.019531 -2.59375 2.804688 -3.222656 2.703125 -3.890625 C 2.609375 -4.566406 2.5625 -5.207031 2.5625 -5.8125 Z M 2.390625 -28.921875 C 2.390625 -29.617188 2.550781 -30.25 2.875 -30.8125 C 3.207031 -31.375 3.660156 -31.820312 4.234375 -32.15625 C 4.804688 -32.488281 5.429688 -32.65625 6.109375 -32.65625 C 6.804688 -32.65625 7.4375 -32.488281 8 -32.15625 C 8.5625 -31.820312 9.007812 -31.375 9.34375 -30.8125 C 9.675781 -30.25 9.84375 -29.617188 9.84375 -28.921875 C 9.84375 -28.242188 9.675781 -27.617188 9.34375 -27.046875 C 9.007812 -26.472656 8.5625 -26.019531 8 -25.6875 C 7.4375 -25.363281 6.804688 -25.203125 6.109375 -25.203125 C 5.429688 -25.203125 4.804688 -25.363281 4.234375 -25.6875 C 3.660156 -26.019531 3.207031 -26.472656 2.875 -27.046875 C 2.550781 -27.617188 2.390625 -28.242188 2.390625 -28.921875 Z M 2.390625 -28.921875 "/></g></g><g style="fill:#9333ea;fill-opacity:1;"><g transform="translate(121.249731, 47.977551)"><path style="stroke:none" d="M 9.171875 -15.546875 C 9.171875 -12.234375 9.847656 -9.785156 11.203125 -8.203125 C 12.566406 -6.617188 14.46875 -5.828125 16.90625 -5.828125 C 18.050781 -5.828125 19.085938 -5.953125 20.015625 -6.203125 C 20.941406 -6.460938 21.691406 -6.679688 22.265625 -6.859375 C 22.703125 -6.984375 23.1875 -7.023438 23.71875 -6.984375 C 24.25 -6.941406 24.757812 -6.765625 25.25 -6.453125 C 25.75 -6.148438 26.148438 -5.664062 26.453125 -5 C 26.753906 -4.34375 26.890625 -3.457031 26.859375 -2.34375 C 26.859375 -2.34375 26.691406 -2.25 26.359375 -2.0625 C 26.035156 -1.875 25.566406 -1.640625 24.953125 -1.359375 C 24.335938 -1.085938 23.613281 -0.8125 22.78125 -0.53125 C 21.945312 -0.257812 21.035156 -0.03125 20.046875 0.15625 C 19.054688 0.34375 18.007812 0.4375 16.90625 0.4375 C 14.46875 0.4375 12.316406 0.0546875 10.453125 -0.703125 C 8.597656 -1.460938 7.035156 -2.550781 5.765625 -3.96875 C 4.503906 -5.382812 3.550781 -7.070312 2.90625 -9.03125 C 2.269531 -10.988281 1.953125 -13.160156 1.953125 -15.546875 C 1.953125 -17.929688 2.269531 -20.101562 2.90625 -22.0625 C 3.550781 -24.019531 4.503906 -25.707031 5.765625 -27.125 C 7.035156 -28.539062 8.597656 -29.628906 10.453125 -30.390625 C 12.316406 -31.148438 14.46875 -31.53125 16.90625 -31.53125 C 18.007812 -31.53125 19.054688 -31.4375 20.046875 -31.25 C 21.035156 -31.0625 21.945312 -30.828125 22.78125 -30.546875 C 23.613281 -30.273438 24.335938 -30 24.953125 -29.71875 C 25.566406 -29.445312 26.035156 -29.21875 26.359375 -29.03125 C 26.691406 -28.84375 26.859375 -28.75 26.859375 -28.75 C 26.890625 -27.632812 26.753906 -26.742188 26.453125 -26.078125 C 26.148438 -25.421875 25.75 -24.9375 25.25 -24.625 C 24.757812 -24.320312 24.25 -24.148438 23.71875 -24.109375 C 23.1875 -24.066406 22.703125 -24.109375 22.265625 -24.234375 C 21.691406 -24.410156 20.941406 -24.625 20.015625 -24.875 C 19.085938 -25.132812 18.050781 -25.265625 16.90625 -25.265625 C 14.46875 -25.265625 12.566406 -24.472656 11.203125 -22.890625 C 9.847656 -21.316406 9.171875 -18.867188 9.171875 -15.546875 Z M 9.171875 -15.546875 "/></g></g><g style="fill:#9333ea;fill-opacity:1;"><g transform="translate(149.647086, 47.977551)"><path style="stroke:none" d="M 23.109375 -12.90625 L 23.109375 -5.8125 C 23.109375 -5.257812 23.148438 -4.773438 23.234375 -4.359375 C 23.316406 -3.953125 23.507812 -3.632812 23.8125 -3.40625 C 24.125 -3.1875 24.617188 -3.078125 25.296875 -3.078125 C 25.296875 -2.585938 25.148438 -2.109375 24.859375 -1.640625 C 24.566406 -1.171875 24.097656 -0.78125 23.453125 -0.46875 C 22.804688 -0.15625 21.957031 0 20.90625 0 C 20.195312 0 19.59375 -0.09375 19.09375 -0.28125 C 18.601562 -0.46875 18.195312 -0.703125 17.875 -0.984375 C 17.550781 -1.265625 17.300781 -1.539062 17.125 -1.8125 C 16.957031 -2.09375 16.835938 -2.328125 16.765625 -2.515625 C 16.691406 -2.703125 16.65625 -2.796875 16.65625 -2.796875 C 16.65625 -2.796875 16.585938 -2.6875 16.453125 -2.46875 C 16.328125 -2.25 16.113281 -1.976562 15.8125 -1.65625 C 15.519531 -1.34375 15.117188 -1.023438 14.609375 -0.703125 C 14.109375 -0.378906 13.476562 -0.109375 12.71875 0.109375 C 11.957031 0.328125 11.050781 0.4375 10 0.4375 C 8.289062 0.4375 6.800781 0.160156 5.53125 -0.390625 C 4.257812 -0.953125 3.269531 -1.78125 2.5625 -2.875 C 1.863281 -3.96875 1.515625 -5.304688 1.515625 -6.890625 C 1.515625 -8.148438 1.734375 -9.21875 2.171875 -10.09375 C 2.617188 -10.96875 3.222656 -11.691406 3.984375 -12.265625 C 4.753906 -12.835938 5.628906 -13.285156 6.609375 -13.609375 C 7.597656 -13.929688 8.632812 -14.164062 9.71875 -14.3125 C 10.800781 -14.457031 11.878906 -14.539062 12.953125 -14.5625 C 14.035156 -14.582031 15.050781 -14.578125 16 -14.546875 C 16 -15.273438 15.882812 -15.835938 15.65625 -16.234375 C 15.4375 -16.628906 15.054688 -16.90625 14.515625 -17.0625 C 13.984375 -17.21875 13.25 -17.296875 12.3125 -17.296875 C 11.300781 -17.296875 10.328125 -17.210938 9.390625 -17.046875 C 8.453125 -16.878906 7.609375 -16.691406 6.859375 -16.484375 C 6.117188 -16.273438 5.535156 -16.085938 5.109375 -15.921875 C 4.679688 -15.753906 4.46875 -15.671875 4.46875 -15.671875 C 3.769531 -17.128906 3.613281 -18.40625 4 -19.5 C 4.394531 -20.601562 5.21875 -21.359375 6.46875 -21.765625 C 7.3125 -22.054688 8.253906 -22.296875 9.296875 -22.484375 C 10.335938 -22.671875 11.5625 -22.765625 12.96875 -22.765625 C 15.007812 -22.765625 16.6875 -22.535156 18 -22.078125 C 19.320312 -21.628906 20.351562 -20.976562 21.09375 -20.125 C 21.84375 -19.269531 22.363281 -18.234375 22.65625 -17.015625 C 22.957031 -15.804688 23.109375 -14.4375 23.109375 -12.90625 Z M 8.625 -7.109375 C 8.625 -6.472656 8.84375 -5.96875 9.28125 -5.59375 C 9.726562 -5.21875 10.546875 -5.03125 11.734375 -5.03125 C 13.128906 -5.03125 14.1875 -5.457031 14.90625 -6.3125 C 15.632812 -7.164062 16 -8.320312 16 -9.78125 C 13.644531 -9.9375 11.828125 -9.785156 10.546875 -9.328125 C 9.265625 -8.878906 8.625 -8.140625 8.625 -7.109375 Z M 8.625 -7.109375 "/></g></g><g style="fill:#9333ea;fill-opacity:1;"><g transform="translate(175.269594, 47.977551)"><path style="stroke:none" d="M 0.65625 -16.875 C 0.65625 -17.664062 0.671875 -18.394531 0.703125 -19.0625 C 0.742188 -19.726562 0.859375 -20.304688 1.046875 -20.796875 C 1.234375 -21.285156 1.535156 -21.660156 1.953125 -21.921875 C 2.367188 -22.191406 2.96875 -22.328125 3.75 -22.328125 L 5.578125 -22.328125 L 5.578125 -28.625 L 9.171875 -28.625 C 10.171875 -28.625 10.914062 -28.460938 11.40625 -28.140625 C 11.90625 -27.828125 12.242188 -27.367188 12.421875 -26.765625 C 12.597656 -26.171875 12.6875 -25.445312 12.6875 -24.59375 L 12.6875 -22.328125 L 19.125 -22.328125 C 19.125 -21.535156 19.101562 -20.804688 19.0625 -20.140625 C 19.03125 -19.472656 18.921875 -18.894531 18.734375 -18.40625 C 18.546875 -17.914062 18.238281 -17.535156 17.8125 -17.265625 C 17.394531 -17.003906 16.800781 -16.875 16.03125 -16.875 L 12.6875 -16.875 L 12.6875 -9.34375 C 12.6875 -8.113281 12.769531 -7.191406 12.9375 -6.578125 C 13.113281 -5.960938 13.414062 -5.550781 13.84375 -5.34375 C 14.269531 -5.132812 14.859375 -5.03125 15.609375 -5.03125 C 16.097656 -5.03125 16.570312 -5.078125 17.03125 -5.171875 C 17.488281 -5.265625 17.867188 -5.359375 18.171875 -5.453125 C 18.472656 -5.546875 18.625 -5.59375 18.625 -5.59375 C 18.695312 -4.882812 18.664062 -4.175781 18.53125 -3.46875 C 18.40625 -2.757812 18.132812 -2.109375 17.71875 -1.515625 C 17.300781 -0.921875 16.707031 -0.445312 15.9375 -0.09375 C 15.164062 0.257812 14.191406 0.4375 13.015625 0.4375 C 11.347656 0.4375 9.960938 0.128906 8.859375 -0.484375 C 7.765625 -1.097656 6.941406 -2.117188 6.390625 -3.546875 C 5.847656 -4.984375 5.578125 -6.914062 5.578125 -9.34375 L 5.578125 -16.875 Z M 0.65625 -16.875 "/></g></g><g style="fill:#9333ea;fill-opacity:1;"><g transform="translate(195.364372, 47.977551)"><path style="stroke:none" d="M 12.796875 0.4375 C 11.003906 0.4375 9.40625 0.148438 8 -0.421875 C 6.59375 -0.992188 5.410156 -1.800781 4.453125 -2.84375 C 3.492188 -3.882812 2.765625 -5.109375 2.265625 -6.515625 C 1.765625 -7.921875 1.515625 -9.472656 1.515625 -11.171875 C 1.515625 -12.859375 1.765625 -14.40625 2.265625 -15.8125 C 2.765625 -17.226562 3.492188 -18.453125 4.453125 -19.484375 C 5.410156 -20.523438 6.59375 -21.332031 8 -21.90625 C 9.40625 -22.476562 11.003906 -22.765625 12.796875 -22.765625 C 14.359375 -22.765625 15.816406 -22.507812 17.171875 -22 C 18.523438 -21.5 19.71875 -20.78125 20.75 -19.84375 C 21.789062 -18.90625 22.601562 -17.773438 23.1875 -16.453125 C 23.769531 -15.140625 24.0625 -13.679688 24.0625 -12.078125 C 24.0625 -11.523438 23.984375 -11.003906 23.828125 -10.515625 C 23.679688 -10.035156 23.394531 -9.644531 22.96875 -9.34375 C 22.539062 -9.050781 21.910156 -8.90625 21.078125 -8.90625 L 8.625 -8.90625 C 8.664062 -8.25 8.832031 -7.625 9.125 -7.03125 C 9.414062 -6.4375 9.859375 -5.953125 10.453125 -5.578125 C 11.046875 -5.210938 11.828125 -5.03125 12.796875 -5.03125 C 13.835938 -5.03125 14.820312 -5.117188 15.75 -5.296875 C 16.6875 -5.484375 17.488281 -5.648438 18.15625 -5.796875 C 19.4375 -6.097656 20.421875 -5.90625 21.109375 -5.21875 C 21.796875 -4.539062 22.210938 -3.382812 22.359375 -1.75 C 22.359375 -1.75 22.132812 -1.632812 21.6875 -1.40625 C 21.238281 -1.1875 20.59375 -0.9375 19.75 -0.65625 C 18.914062 -0.375 17.910156 -0.125 16.734375 0.09375 C 15.566406 0.320312 14.253906 0.4375 12.796875 0.4375 Z M 8.625 -13.4375 L 16.953125 -13.4375 C 16.785156 -14.582031 16.359375 -15.507812 15.671875 -16.21875 C 14.984375 -16.9375 14.023438 -17.296875 12.796875 -17.296875 C 11.566406 -17.296875 10.609375 -16.9375 9.921875 -16.21875 C 9.234375 -15.507812 8.800781 -14.582031 8.625 -13.4375 Z M 8.625 -13.4375 "/></g></g><g clip-rule="nonzero" clip-path="url(#ff5b12e592)"><path style=" stroke:none;fill-rule:nonzero;fill:#dbdbdb;fill-opacity:1;" d="M 235.464844 45.539062 L 235.265625 46.554688 C 235.226562 46.738281 235.066406 46.859375 234.890625 46.847656 C 234.078125 46.792969 231.679688 46.738281 227.832031 47.445312 C 222.261719 48.472656 218.597656 51.125 217.878906 52.589844 C 217.398438 53.535156 218.304688 54.800781 218.742188 55.332031 C 218.863281 55.480469 218.863281 55.695312 218.730469 55.839844 L 217.890625 56.773438 C 217.742188 56.933594 217.503906 56.917969 217.371094 56.757812 C 216.703125 55.988281 215.105469 53.800781 216.171875 51.65625 C 217.265625 49.472656 221.59375 46.539062 227.511719 45.445312 C 231.679688 44.675781 234.28125 44.941406 235.1875 45.085938 C 235.371094 45.113281 235.503906 45.328125 235.464844 45.539062 Z M 235.464844 45.539062 "/></g><path style=" stroke:none;fill-rule:nonzero;fill:#191919;fill-opacity:1;" d="M 219.316406 55.601562 L 221.035156 57.105469 C 221.273438 57.398438 221.207031 57.890625 220.875 58.210938 L 219.808594 59.222656 C 219.476562 59.542969 218.996094 59.570312 218.742188 59.277344 L 217.476562 57.332031 C 217.277344 57.105469 217.332031 56.707031 217.609375 56.453125 L 218.464844 55.640625 C 218.730469 55.386719 219.117188 55.359375 219.316406 55.601562 Z M 219.316406 55.601562 "/><g clip-rule="nonzero" clip-path="url(#e8748a77ac)"><path style=" stroke:none;fill-rule:nonzero;fill:#dbdbdb;fill-opacity:1;" d="M 240.753906 55.761719 L 239.863281 55.332031 C 239.703125 55.253906 239.503906 55.308594 239.410156 55.46875 C 238.957031 56.1875 237.570312 58.238281 234.734375 61.050781 C 230.628906 65.128906 226.40625 66.632812 224.859375 66.367188 C 223.847656 66.191406 223.421875 64.675781 223.285156 63.996094 C 223.246094 63.808594 223.074219 63.6875 222.902344 63.703125 L 221.6875 63.847656 C 221.476562 63.875 221.339844 64.074219 221.382812 64.300781 C 221.582031 65.328125 222.289062 67.980469 224.566406 68.363281 C 226.882812 68.765625 231.722656 66.847656 236.078125 62.515625 C 239.15625 59.464844 240.503906 57.117188 240.941406 56.253906 C 241.023438 56.078125 240.941406 55.839844 240.753906 55.761719 Z M 240.753906 55.761719 "/></g><path style=" stroke:none;fill-rule:nonzero;fill:#191919;fill-opacity:1;" d="M 223.445312 63.355469 L 223.3125 61.011719 C 223.246094 60.625 222.820312 60.382812 222.382812 60.488281 L 220.96875 60.785156 C 220.515625 60.875 220.222656 61.261719 220.289062 61.648438 L 221.023438 63.875 C 221.074219 64.179688 221.421875 64.367188 221.769531 64.289062 L 222.886719 64.046875 C 223.261719 63.980469 223.5 63.675781 223.445312 63.355469 Z M 223.445312 63.355469 "/><g clip-rule="nonzero" clip-path="url(#dcd669a6dd)"><path style=" stroke:none;fill-rule:nonzero;fill:#6b21a8;fill-opacity:1;" d="M 253.707031 3.996094 C 249.269531 3.996094 245.257812 6.113281 242.714844 9.429688 C 240.15625 6.113281 236.160156 3.996094 231.707031 3.996094 C 224.074219 3.996094 217.851562 10.242188 217.851562 17.90625 C 217.851562 19.199219 218.035156 20.488281 218.382812 21.730469 C 219.460938 26.300781 223.085938 31.628906 229.191406 37.585938 C 229.710938 38.089844 230.546875 38.132812 231.09375 37.652344 C 231.109375 37.640625 231.121094 37.640625 231.121094 37.625 C 231.746094 37.078125 231.789062 36.121094 231.1875 35.546875 C 226.632812 31.097656 222.234375 25.765625 221.140625 21.011719 C 220.847656 20.023438 220.703125 18.984375 220.703125 17.90625 C 220.703125 11.800781 225.632812 6.859375 231.707031 6.859375 C 236.917969 6.859375 241.339844 10.484375 242.488281 15.359375 C 242.539062 15.585938 242.859375 15.585938 242.914062 15.359375 C 244.074219 10.484375 248.496094 6.859375 253.691406 6.859375 C 259.769531 6.859375 264.699219 11.800781 264.699219 17.90625 C 264.699219 18.160156 264.6875 18.410156 264.671875 18.652344 C 264.914062 28.378906 247.402344 41.890625 243.539062 44.753906 C 243.234375 44.488281 242.902344 44.234375 242.527344 43.980469 C 240.78125 42.835938 238.957031 43.566406 237.558594 44.328125 C 236.8125 44.726562 235.957031 44.875 235.425781 44.925781 C 235.105469 44.953125 234.867188 45.234375 234.867188 45.566406 L 234.851562 45.980469 L 234.839844 46.300781 C 234.824219 46.6875 235.144531 46.992188 235.503906 46.964844 C 236.226562 46.898438 237.382812 46.710938 238.449219 46.140625 C 239.890625 45.355469 240.78125 45.234375 241.515625 45.714844 C 242.40625 46.300781 243.035156 46.953125 243.421875 47.683594 C 243.804688 48.445312 243.992188 49.378906 243.953125 50.523438 C 243.925781 51.429688 243.339844 52.136719 241.914062 52.960938 C 240.875 53.5625 240.074219 54.480469 239.621094 55.082031 C 239.394531 55.386719 239.476562 55.828125 239.78125 56.027344 L 240.035156 56.199219 L 240.367188 56.414062 C 240.636719 56.585938 240.980469 56.53125 241.183594 56.28125 C 241.515625 55.828125 242.113281 55.171875 242.847656 54.746094 C 244.21875 53.933594 245.539062 52.707031 245.871094 50.589844 C 246.058594 49.445312 245.964844 48.644531 245.699219 47.804688 C 245.566406 47.351562 245.472656 47.058594 245.417969 46.953125 C 247.296875 45.554688 251.5625 42.261719 255.824219 38.171875 C 259.167969 34.960938 261.835938 31.894531 263.738281 29.070312 C 266.296875 25.285156 267.578125 21.824219 267.539062 18.757812 C 267.550781 18.476562 267.5625 18.210938 267.5625 17.945312 C 267.5625 10.242188 261.339844 3.996094 253.707031 3.996094 Z M 253.707031 3.996094 "/></g><path style=" stroke:none;fill-rule:nonzero;fill:#c4c2c2;fill-opacity:1;" d="M 235.878906 38.011719 C 235.878906 38.273438 235.851562 38.535156 235.796875 38.792969 C 235.746094 39.050781 235.664062 39.300781 235.558594 39.542969 C 235.453125 39.785156 235.324219 40.015625 235.171875 40.234375 C 235.019531 40.449219 234.847656 40.652344 234.652344 40.839844 C 234.457031 41.023438 234.246094 41.191406 234.019531 41.335938 C 233.789062 41.480469 233.550781 41.605469 233.296875 41.703125 C 233.042969 41.804688 232.78125 41.882812 232.511719 41.933594 C 232.242188 41.984375 231.96875 42.007812 231.695312 42.007812 C 231.421875 42.007812 231.148438 41.984375 230.878906 41.933594 C 230.609375 41.882812 230.347656 41.804688 230.09375 41.703125 C 229.839844 41.605469 229.597656 41.480469 229.371094 41.335938 C 229.140625 41.191406 228.929688 41.023438 228.734375 40.839844 C 228.542969 40.652344 228.367188 40.449219 228.214844 40.234375 C 228.0625 40.015625 227.933594 39.785156 227.828125 39.542969 C 227.722656 39.300781 227.644531 39.050781 227.589844 38.792969 C 227.539062 38.535156 227.511719 38.273438 227.511719 38.011719 C 227.511719 37.75 227.539062 37.488281 227.589844 37.230469 C 227.644531 36.972656 227.722656 36.722656 227.828125 36.480469 C 227.933594 36.238281 228.0625 36.007812 228.214844 35.789062 C 228.367188 35.574219 228.542969 35.371094 228.734375 35.183594 C 228.929688 35 229.140625 34.832031 229.371094 34.6875 C 229.597656 34.542969 229.839844 34.417969 230.09375 34.320312 C 230.347656 34.21875 230.609375 34.140625 230.878906 34.089844 C 231.148438 34.039062 231.421875 34.015625 231.695312 34.015625 C 231.96875 34.015625 232.242188 34.039062 232.511719 34.089844 C 232.78125 34.140625 233.042969 34.21875 233.296875 34.320312 C 233.550781 34.417969 233.789062 34.542969 234.019531 34.6875 C 234.246094 34.832031 234.457031 35 234.652344 35.183594 C 234.847656 35.371094 235.019531 35.574219 235.171875 35.789062 C 235.324219 36.007812 235.453125 36.238281 235.558594 36.480469 C 235.664062 36.722656 235.746094 36.972656 235.796875 37.230469 C 235.851562 37.488281 235.878906 37.75 235.878906 38.011719 Z M 235.878906 38.011719 "/><path style=" stroke:none;fill-rule:nonzero;fill:#dbdbdb;fill-opacity:1;" d="M 234.039062 38.011719 C 234.039062 38.308594 233.980469 38.59375 233.859375 38.867188 C 233.742188 39.144531 233.574219 39.382812 233.351562 39.59375 C 233.132812 39.804688 232.878906 39.964844 232.59375 40.078125 C 232.304688 40.195312 232.003906 40.25 231.695312 40.25 C 231.382812 40.25 231.085938 40.195312 230.796875 40.078125 C 230.511719 39.964844 230.257812 39.804688 230.035156 39.59375 C 229.816406 39.382812 229.648438 39.144531 229.527344 38.867188 C 229.410156 38.59375 229.347656 38.308594 229.347656 38.011719 C 229.347656 37.714844 229.410156 37.429688 229.527344 37.15625 C 229.648438 36.882812 229.816406 36.640625 230.035156 36.429688 C 230.257812 36.21875 230.511719 36.058594 230.796875 35.945312 C 231.085938 35.832031 231.382812 35.773438 231.695312 35.773438 C 232.003906 35.773438 232.304688 35.832031 232.59375 35.945312 C 232.878906 36.058594 233.132812 36.21875 233.351562 36.429688 C 233.574219 36.640625 233.742188 36.882812 233.859375 37.15625 C 233.980469 37.429688 234.039062 37.714844 234.039062 38.011719 Z M 234.039062 38.011719 "/></g></svg>